<svg id="visual" viewBox="0 0 960 540" width="960" height="540" xmlns="http://www.w3.org/2000/svg" xmlns:xlink="http://www.w3.org/1999/xlink" version="1.1"><path d="M0 395L137 385L274 367L411 360L549 366L686 412L823 387L960 426L960 541L823 541L686 541L549 541L411 541L274 541L137 541L0 541Z" fill="#421b7e"></path><path d="M0 451L137 426L274 405L411 437L549 412L686 396L823 417L960 431L960 541L823 541L686 541L549 541L411 541L274 541L137 541L0 541Z" fill="#3a1971"></path><path d="M0 468L137 475L274 466L411 469L549 453L686 466L823 434L960 430L960 541L823 541L686 541L549 541L411 541L274 541L137 541L0 541Z" fill="#331764"></path><path d="M0 483L137 495L274 494L411 459L549 478L686 495L823 470L960 462L960 541L823 541L686 541L549 541L411 541L274 541L137 541L0 541Z" fill="#2c1557"></path><path d="M0 496L137 491L274 503L411 502L549 489L686 489L823 515L960 488L960 541L823 541L686 541L549 541L411 541L274 541L137 541L0 541Z" fill="#26124b"></path></svg>