<svg id="visual" viewBox="0 0 1920 200" width="1920" height="200" xmlns="http://www.w3.org/2000/svg" xmlns:xlink="http://www.w3.org/1999/xlink" version="1.1"><path d="M0 88L274 37L549 81L823 80L1097 43L1371 90L1646 61L1920 72L1920 201L1646 201L1371 201L1097 201L823 201L549 201L274 201L0 201Z" fill="#26124b"></path><path d="M0 99L274 97L549 84L823 116L1097 119L1371 103L1646 94L1920 92L1920 201L1646 201L1371 201L1097 201L823 201L549 201L274 201L0 201Z" fill="#1f1140"></path><path d="M0 99L274 114L549 93L823 123L1097 130L1371 119L1646 108L1920 97L1920 201L1646 201L1371 201L1097 201L823 201L549 201L274 201L0 201Z" fill="#191035"></path><path d="M0 152L274 134L549 147L823 120L1097 161L1371 157L1646 154L1920 122L1920 201L1646 201L1371 201L1097 201L823 201L549 201L274 201L0 201Z" fill="#150d2a"></path><path d="M0 153L274 151L549 166L823 161L1097 170L1371 164L1646 181L1920 157L1920 201L1646 201L1371 201L1097 201L823 201L549 201L274 201L0 201Z" fill="#10081f"></path></svg>